<?xml version="1.0" encoding="utf-8"?>
<!-- Generator: Adobe Illustrator 27.5.0, SVG Export Plug-In . SVG Version: 6.00 Build 0)  -->
<svg version="1.1" xmlns="http://www.w3.org/2000/svg" xmlns:xlink="http://www.w3.org/1999/xlink" x="0px" y="0px"
	 viewBox="0 0 841.89 566.929" style="enable-background:new 0 0 841.89 566.929;" xml:space="preserve">
<g id="BG">
	<rect y="0" style="fill:#FFFFFF;" width="174" height="26"/>
</g>
<g id="graphics">
	<g>
		<g>
			<path style="fill:#5E6A72;" d="M309.717,442.673h-9.347v-19.441h-18.227v19.441h-9.348v-39.187c0-3.411,2.766-6.177,6.178-6.177
				h3.17v18.383h18.227v-12.206c0-3.411,2.766-6.177,6.178-6.177h3.169V442.673z"/>
			<path style="fill:#5E6A72;" d="M339.99,442.673c-1.919,0-3.777-1.125-4.071-3.022l0,0c-0.914,1.019-2.061,1.88-3.443,2.586
				c-1.381,0.705-3.068,1.06-5.063,1.06c-1.62,0-3.131-0.25-4.533-0.748c-1.401-0.499-2.617-1.194-3.645-2.088
				c-1.029-0.893-1.834-1.957-2.415-3.193c-0.582-1.235-0.872-2.591-0.872-4.066c0-1.766,0.327-3.334,0.98-4.704
				c0.654-1.371,1.637-2.534,2.944-3.489c1.31-0.956,2.935-1.683,4.876-2.181c1.942-0.499,4.201-0.748,6.777-0.748h4.018v-1.932
				c0-1.558-0.4-2.805-1.199-3.739c-0.8-0.935-2.062-1.401-3.785-1.401c-1.517,0-2.706,0.363-3.568,1.09
				c-0.861,0.728-1.293,1.725-1.293,2.991h-9.004c0-1.454,0.338-2.835,1.013-4.143c0.675-1.31,1.636-2.451,2.882-3.428
				c1.246-0.975,2.752-1.75,4.519-2.321c1.765-0.57,3.738-0.857,5.919-0.857c1.952,0,3.76,0.249,5.422,0.748
				c1.661,0.498,3.095,1.241,4.299,2.228c1.205,0.986,2.145,2.223,2.82,3.707c0.675,1.485,1.013,3.215,1.013,5.188v14.27
				c0,0.955,0.031,1.813,0.093,2.57c0.063,0.758,0.146,1.443,0.249,2.057c0.104,0.613,0.239,1.163,0.405,1.65
				c0.166,0.488,0.363,0.95,0.592,1.387v0.529H339.99z M329.376,436.411c0.768,0,1.48-0.094,2.135-0.281
				c0.654-0.187,1.24-0.43,1.76-0.732c0.52-0.3,0.971-0.647,1.356-1.043c0.385-0.395,0.69-0.8,0.919-1.215v-5.795h-3.707
				c-1.185,0-2.212,0.13-3.085,0.389c-0.872,0.26-1.589,0.623-2.149,1.091c-0.561,0.468-0.976,1.017-1.246,1.65
				c-0.271,0.635-0.405,1.325-0.405,2.072c0,1.122,0.395,2.047,1.184,2.773C326.925,436.048,328.006,436.411,329.376,436.411z"/>
			<path style="fill:#5E6A72;" d="M381.844,426.129c0,2.451-0.285,4.726-0.856,6.823c-0.572,2.099-1.408,3.911-2.509,5.436
				c-1.101,1.527-2.467,2.727-4.097,3.6c-1.631,0.872-3.505,1.309-5.623,1.309c-1.787,0-3.36-0.311-4.721-0.936
				c-1.36-0.622-2.539-1.495-3.536-2.616v9.712c0,3.412-2.766,6.178-6.178,6.178h-2.827v-46.672h8.351l0.311,3.302
				c1.038-1.246,2.248-2.213,3.63-2.898c1.381-0.685,3.017-1.028,4.906-1.028c2.14,0,4.03,0.411,5.671,1.23
				c1.641,0.821,3.012,1.984,4.112,3.49c1.101,1.506,1.937,3.313,2.509,5.421c0.571,2.107,0.856,4.44,0.856,6.994V426.129z
				 M372.84,425.475c0-1.391-0.12-2.684-0.358-3.879c-0.239-1.193-0.618-2.232-1.138-3.115c-0.519-0.883-1.188-1.573-2.009-2.072
				c-0.821-0.498-1.823-0.748-3.007-0.748c-1.476,0-2.686,0.275-3.63,0.826c-0.945,0.551-1.678,1.355-2.196,2.414v13.803
				c0.518,1.039,1.251,1.854,2.196,2.445c0.944,0.593,2.176,0.889,3.691,0.889c1.185,0,2.187-0.26,3.007-0.778
				c0.82-0.52,1.485-1.231,1.994-2.135c0.509-0.903,0.877-1.957,1.107-3.163c0.228-1.203,0.343-2.482,0.343-3.832V425.475z"/>
			<path style="fill:#5E6A72;" d="M417.768,426.129c0,2.451-0.285,4.726-0.857,6.823c-0.571,2.099-1.407,3.911-2.508,5.436
				c-1.1,1.527-2.467,2.727-4.097,3.6c-1.631,0.872-3.506,1.309-5.624,1.309c-1.786,0-3.359-0.311-4.72-0.936
				c-1.361-0.622-2.539-1.495-3.536-2.616v9.712c0,3.412-2.766,6.178-6.179,6.178h-2.826v-46.672h8.35l0.313,3.302
				c1.038-1.246,2.248-2.213,3.63-2.898c1.38-0.685,3.017-1.028,4.906-1.028c2.14,0,4.03,0.411,5.671,1.23
				c1.641,0.821,3.012,1.984,4.112,3.49c1.101,1.506,1.937,3.313,2.508,5.421c0.572,2.107,0.857,4.44,0.857,6.994V426.129z
				 M408.764,425.475c0-1.391-0.12-2.684-0.358-3.879c-0.239-1.193-0.619-2.232-1.138-3.115c-0.519-0.883-1.188-1.573-2.01-2.072
				c-0.82-0.498-1.822-0.748-3.006-0.748c-1.476,0-2.686,0.275-3.63,0.826c-0.946,0.551-1.678,1.355-2.196,2.414v13.803
				c0.518,1.039,1.25,1.854,2.196,2.445c0.944,0.593,2.176,0.889,3.691,0.889c1.185,0,2.186-0.26,3.007-0.778
				c0.82-0.52,1.485-1.231,1.994-2.135c0.509-0.903,0.877-1.957,1.105-3.163c0.229-1.203,0.344-2.482,0.344-3.832V425.475z"/>
			<path style="fill:#5E6A72;" d="M435.589,429.931l4.472-15.046c1.042-3.507,4.281-5.922,7.938-5.922h3.48l-13.491,38.758
				c-0.31,0.851-0.711,1.775-1.199,2.772s-1.148,1.927-1.978,2.788c-0.831,0.862-1.858,1.579-3.084,2.151
				c-1.226,0.57-2.732,0.856-4.518,0.856c-0.416,0-0.79-0.017-1.122-0.047c-0.333-0.031-0.654-0.068-0.965-0.109
				c-0.313-0.042-0.619-0.1-0.919-0.172c-0.303-0.072-0.629-0.16-0.981-0.265v-6.823c0.227,0,0.462,0.005,0.7,0.016
				c0.238,0.011,0.462,0.017,0.67,0.017c0.893,0,1.656-0.068,2.29-0.204c0.634-0.135,1.179-0.353,1.636-0.653
				c0.457-0.302,0.841-0.681,1.152-1.137c0.313-0.458,0.581-0.998,0.811-1.621l0.966-2.523l-11.809-33.804h9.69L435.589,429.931z"/>
			<path style="fill:#5E6A72;" d="M479.146,430.772c0-0.79-0.115-1.501-0.343-2.135c-0.229-0.634-0.671-1.22-1.325-1.761
				c-0.654-0.54-1.558-1.069-2.71-1.589c-1.152-0.518-2.644-1.07-4.472-1.651c-2.077-0.665-4.034-1.412-5.873-2.243
				c-1.838-0.831-3.447-1.813-4.829-2.944c-1.381-1.132-2.472-2.435-3.272-3.911c-0.8-1.474-1.199-3.197-1.199-5.171
				c0-1.891,0.41-3.619,1.23-5.188c0.82-1.567,1.973-2.901,3.459-4.003c1.485-1.101,3.25-1.958,5.297-2.571
				c2.045-0.611,4.294-0.918,6.744-0.918c2.514,0,4.799,0.348,6.855,1.044c2.056,0.696,3.81,1.667,5.266,2.913
				c1.453,1.246,2.575,2.726,3.364,4.439c0.789,1.714,1.184,3.588,1.184,5.624h-9.347c0-0.955-0.15-1.838-0.452-2.649
				c-0.301-0.81-0.763-1.506-1.387-2.086c-0.622-0.581-1.401-1.034-2.335-1.356c-0.936-0.321-2.037-0.482-3.304-0.482
				c-1.226,0-2.29,0.136-3.193,0.405c-0.903,0.27-1.651,0.644-2.243,1.121c-0.592,0.478-1.038,1.039-1.34,1.683
				c-0.301,0.644-0.452,1.329-0.452,2.056c0,1.496,0.764,2.748,2.29,3.756c1.527,1.007,3.765,1.946,6.715,2.818
				c2.471,0.77,4.647,1.621,6.527,2.556c1.879,0.934,3.447,1.994,4.704,3.177c1.257,1.185,2.207,2.514,2.852,3.988
				c0.643,1.476,0.965,3.147,0.965,5.017c0,1.994-0.39,3.77-1.168,5.328c-0.778,1.558-1.885,2.871-3.318,3.94
				c-1.434,1.07-3.161,1.892-5.188,2.462c-2.025,0.571-4.283,0.857-6.776,0.857c-1.495,0-2.99-0.131-4.486-0.39
				c-1.495-0.26-2.924-0.659-4.284-1.2c-1.36-0.539-2.622-1.215-3.785-2.025c-1.163-0.81-2.177-1.765-3.038-2.865
				c-0.862-1.102-1.537-2.353-2.025-3.755c-0.488-1.402-0.732-2.955-0.732-4.658h9.379c0,1.371,0.218,2.534,0.654,3.49
				c0.436,0.956,1.044,1.73,1.822,2.321c0.779,0.591,1.719,1.022,2.819,1.293c1.102,0.27,2.326,0.405,3.677,0.405
				c1.204,0,2.254-0.13,3.147-0.39c0.893-0.26,1.631-0.618,2.212-1.076c0.581-0.456,1.014-1.001,1.293-1.636
				C479.006,432.179,479.146,431.499,479.146,430.772z"/>
			<path style="fill:#5E6A72;" d="M505.037,400.674v8.289h5.764v6.605h-5.764v16.824c0,0.707,0.072,1.289,0.218,1.745
				c0.146,0.457,0.364,0.815,0.654,1.075c0.291,0.26,0.649,0.435,1.075,0.529c0.426,0.093,0.93,0.14,1.511,0.14
				c0.541,0,1.033-0.02,1.48-0.061c0.445-0.042,0.835-0.094,1.168-0.156v6.823c-0.748,0.229-1.563,0.421-2.445,0.576
				c-0.883,0.155-1.886,0.234-3.007,0.234c-1.476,0-2.805-0.183-3.987-0.546c-1.185-0.363-2.197-0.939-3.038-1.729
				c-0.842-0.788-1.491-1.817-1.947-3.084c-0.458-1.267-0.686-2.793-0.686-4.58v-17.79h-4.923v-6.605h4.923v-2.111
				c0-3.412,2.766-6.178,6.177-6.178H505.037z"/>
			<path style="fill:#5E6A72;" d="M538.519,442.673c-1.92,0-3.777-1.125-4.071-3.022l0,0c-0.915,1.019-2.063,1.88-3.443,2.586
				c-1.381,0.705-3.069,1.06-5.063,1.06c-1.619,0-3.131-0.25-4.533-0.748c-1.401-0.499-2.616-1.194-3.645-2.088
				c-1.028-0.893-1.833-1.957-2.414-3.193c-0.582-1.235-0.873-2.591-0.873-4.066c0-1.766,0.327-3.334,0.981-4.704
				c0.654-1.371,1.636-2.534,2.944-3.489c1.309-0.956,2.934-1.683,4.876-2.181c1.941-0.499,4.201-0.748,6.776-0.748h4.019v-1.932
				c0-1.558-0.4-2.805-1.2-3.739c-0.8-0.935-2.061-1.401-3.785-1.401c-1.516,0-2.705,0.363-3.567,1.09
				c-0.862,0.728-1.293,1.725-1.293,2.991h-9.004c0-1.454,0.338-2.835,1.012-4.143c0.675-1.31,1.636-2.451,2.882-3.428
				c1.247-0.975,2.753-1.75,4.518-2.321c1.766-0.57,3.738-0.857,5.92-0.857c1.951,0,3.759,0.249,5.421,0.748
				c1.662,0.498,3.094,1.241,4.3,2.228c1.205,0.986,2.145,2.223,2.819,3.707c0.676,1.485,1.013,3.215,1.013,5.188v14.27
				c0,0.955,0.031,1.813,0.094,2.57c0.062,0.758,0.145,1.443,0.249,2.057c0.104,0.613,0.238,1.163,0.405,1.65
				c0.166,0.488,0.363,0.95,0.592,1.387v0.529H538.519z M527.905,436.411c0.768,0,1.479-0.094,2.135-0.281
				c0.653-0.187,1.24-0.43,1.76-0.732c0.519-0.3,0.971-0.647,1.354-1.043c0.384-0.395,0.69-0.8,0.92-1.215v-5.795h-3.708
				c-1.185,0-2.212,0.13-3.085,0.389c-0.871,0.26-1.589,0.623-2.15,1.091c-0.56,0.468-0.975,1.017-1.246,1.65
				c-0.271,0.635-0.405,1.325-0.405,2.072c0,1.122,0.395,2.047,1.185,2.773C525.454,436.048,526.534,436.411,527.905,436.411z"/>
			<path style="fill:#5E6A72;" d="M568.969,417.405c-0.456-0.063-0.991-0.119-1.605-0.171c-0.612-0.052-1.158-0.078-1.636-0.078
				c-1.766,0-3.193,0.296-4.283,0.888c-1.091,0.593-1.897,1.449-2.415,2.571v22.058h-9.004V415.14c0-3.411,2.766-6.177,6.177-6.177
				h2.329l0.249,4.018c0.85-1.453,1.9-2.59,3.146-3.411c1.247-0.819,2.7-1.23,4.361-1.23c0.479,0,0.982,0.042,1.512,0.125
				s0.961,0.176,1.293,0.28L568.969,417.405z"/>
		</g>
	</g>
	<g>
		<path style="fill:#8C9799;" d="M323.7,471.09c-0.686-0.647-1.647-0.971-2.883-0.971c-0.883,0-1.658,0.186-2.324,0.56
			c-0.667,0.372-1.222,0.862-1.662,1.471c-0.441,0.608-0.776,1.299-1,2.073c-0.227,0.776-0.338,1.564-0.338,2.369
			c0,0.805,0.111,1.594,0.338,2.368c0.224,0.775,0.559,1.467,1,2.074c0.44,0.608,0.995,1.099,1.662,1.471
			c0.667,0.373,1.441,0.559,2.324,0.559c0.568,0,1.108-0.107,1.619-0.323c0.51-0.215,0.96-0.515,1.353-0.896
			c0.393-0.383,0.716-0.839,0.972-1.369c0.254-0.528,0.412-1.107,0.47-1.735h1.854c-0.255,1.844-0.932,3.281-2.03,4.311
			c-1.098,1.029-2.51,1.544-4.236,1.544c-1.158,0-2.183-0.21-3.074-0.632c-0.893-0.422-1.643-0.996-2.25-1.722
			c-0.609-0.725-1.07-1.574-1.384-2.544c-0.314-0.972-0.47-2.006-0.47-3.104c0-1.099,0.156-2.134,0.47-3.104
			c0.314-0.97,0.775-1.818,1.384-2.545c0.607-0.725,1.357-1.304,2.25-1.735c0.892-0.432,1.917-0.647,3.074-0.647
			c1.628,0,3.005,0.433,4.133,1.294c1.128,0.864,1.799,2.168,2.015,3.914h-1.853C324.858,472.63,324.387,471.737,323.7,471.09z"/>
		<path style="fill:#8C9799;" d="M331.379,469.001v3.56h0.06c0.47-1.235,1.2-2.186,2.191-2.854c0.991-0.666,2.172-0.971,3.546-0.912
			v1.853c-0.844-0.039-1.609,0.073-2.295,0.339c-0.686,0.265-1.279,0.643-1.779,1.132c-0.5,0.491-0.888,1.074-1.162,1.751
			c-0.275,0.677-0.413,1.417-0.413,2.222v8.091h-1.853v-15.182H331.379z"/>
		<path style="fill:#8C9799;" d="M339.779,479.166c0.186,0.716,0.485,1.358,0.897,1.927c0.412,0.569,0.931,1.04,1.559,1.412
			c0.628,0.373,1.383,0.559,2.266,0.559c1.353,0,2.412-0.352,3.177-1.059c0.765-0.706,1.295-1.647,1.589-2.824h1.854
			c-0.393,1.727-1.113,3.06-2.162,4.001c-1.049,0.942-2.536,1.412-4.457,1.412c-1.196,0-2.232-0.21-3.104-0.632
			c-0.873-0.422-1.584-1-2.133-1.736c-0.549-0.735-0.957-1.589-1.221-2.559c-0.265-0.971-0.398-1.995-0.398-3.074
			c0-1,0.133-1.981,0.398-2.942c0.264-0.961,0.672-1.818,1.221-2.574c0.549-0.756,1.26-1.363,2.133-1.824
			c0.872-0.46,1.908-0.691,3.104-0.691c1.216,0,2.256,0.246,3.119,0.735c0.863,0.491,1.564,1.134,2.104,1.928
			c0.54,0.795,0.927,1.706,1.162,2.735c0.235,1.03,0.333,2.075,0.294,3.134h-11.68C339.499,477.759,339.592,478.45,339.779,479.166z
			 M348.958,473.503c-0.226-0.647-0.545-1.222-0.956-1.722c-0.412-0.501-0.912-0.901-1.501-1.206c-0.588-0.305-1.255-0.456-2-0.456
			c-0.765,0-1.441,0.151-2.029,0.456c-0.589,0.305-1.089,0.705-1.5,1.206c-0.413,0.5-0.741,1.079-0.986,1.736
			c-0.245,0.656-0.407,1.329-0.485,2.015h9.827C349.307,474.826,349.184,474.15,348.958,473.503z"/>
		<path style="fill:#8C9799;" d="M354.063,471.354c0.314-0.647,0.741-1.176,1.28-1.589c0.539-0.412,1.172-0.716,1.897-0.912
			c0.726-0.196,1.53-0.294,2.413-0.294c0.667,0,1.333,0.065,2,0.191c0.667,0.128,1.265,0.367,1.795,0.721
			c0.529,0.353,0.961,0.848,1.294,1.485c0.334,0.638,0.501,1.467,0.501,2.486v8.062c0,0.746,0.363,1.118,1.088,1.118
			c0.216,0,0.412-0.039,0.588-0.118v1.56c-0.216,0.04-0.407,0.069-0.573,0.088c-0.167,0.021-0.378,0.03-0.632,0.03
			c-0.471,0-0.849-0.065-1.133-0.191c-0.284-0.127-0.505-0.309-0.662-0.544c-0.157-0.235-0.259-0.516-0.309-0.839
			c-0.049-0.323-0.073-0.681-0.073-1.073h-0.06c-0.333,0.49-0.671,0.927-1.014,1.309c-0.344,0.382-0.727,0.701-1.148,0.956
			c-0.421,0.255-0.902,0.45-1.441,0.589c-0.54,0.137-1.182,0.205-1.927,0.205c-0.707,0-1.369-0.084-1.987-0.25
			c-0.617-0.166-1.157-0.431-1.617-0.794c-0.462-0.362-0.824-0.824-1.089-1.383s-0.398-1.221-0.398-1.986
			c0-1.059,0.236-1.888,0.707-2.485c0.47-0.598,1.093-1.055,1.869-1.368c0.775-0.315,1.648-0.534,2.618-0.662
			c0.972-0.128,1.957-0.25,2.958-0.368c0.392-0.038,0.735-0.089,1.03-0.147c0.294-0.059,0.539-0.162,0.735-0.309
			c0.196-0.147,0.348-0.349,0.455-0.603c0.108-0.255,0.162-0.589,0.162-1.001c0-0.627-0.102-1.143-0.309-1.545
			c-0.205-0.401-0.491-0.721-0.854-0.955c-0.363-0.235-0.784-0.397-1.264-0.485c-0.481-0.089-0.996-0.133-1.545-0.133
			c-1.177,0-2.138,0.279-2.884,0.838c-0.745,0.56-1.138,1.457-1.176,2.692h-1.854C353.563,472.768,353.749,472.002,354.063,471.354z
			 M363.331,475.886c-0.117,0.216-0.344,0.373-0.677,0.471c-0.333,0.098-0.628,0.166-0.882,0.206
			c-0.786,0.137-1.594,0.261-2.427,0.368c-0.834,0.107-1.594,0.269-2.281,0.484c-0.687,0.217-1.251,0.525-1.692,0.928
			c-0.441,0.401-0.662,0.976-0.662,1.721c0,0.471,0.094,0.887,0.28,1.25c0.186,0.364,0.436,0.677,0.75,0.941
			c0.314,0.266,0.677,0.467,1.089,0.603c0.412,0.138,0.833,0.205,1.265,0.205c0.706,0,1.382-0.107,2.03-0.323
			c0.647-0.215,1.21-0.528,1.691-0.94c0.481-0.413,0.863-0.913,1.148-1.502c0.284-0.587,0.426-1.254,0.426-2v-2.412H363.331z"/>
		<path style="fill:#8C9799;" d="M374.981,469.001v1.56h-3.089v10.238c0,0.608,0.084,1.084,0.25,1.427
			c0.167,0.344,0.585,0.535,1.25,0.574c0.53,0,1.06-0.029,1.589-0.088v1.559c-0.275,0-0.549,0.01-0.824,0.03
			c-0.274,0.019-0.549,0.028-0.824,0.028c-1.235,0-2.098-0.239-2.589-0.721c-0.491-0.48-0.726-1.368-0.706-2.662v-10.386h-2.648
			v-1.56h2.648v-4.561h1.853v4.561H374.981z"/>
		<path style="fill:#8C9799;" d="M379.542,463.175v2.973h-1.854v-2.973H379.542z M379.542,469.001v15.182h-1.854v-15.182H379.542z"
			/>
		<path style="fill:#8C9799;" d="M383.455,469.001l4.766,13.328h0.059l4.708-13.328h1.912l-5.678,15.182h-1.972l-5.854-15.182
			H383.455z"/>
		<path style="fill:#8C9799;" d="M398.092,479.166c0.186,0.716,0.485,1.358,0.897,1.927c0.412,0.569,0.931,1.04,1.559,1.412
			c0.628,0.373,1.383,0.559,2.266,0.559c1.354,0,2.412-0.352,3.177-1.059c0.765-0.706,1.295-1.647,1.589-2.824h1.854
			c-0.393,1.727-1.113,3.06-2.163,4.001c-1.049,0.942-2.536,1.412-4.458,1.412c-1.196,0-2.231-0.21-3.104-0.632
			c-0.873-0.422-1.583-1-2.133-1.736c-0.549-0.735-0.957-1.589-1.22-2.559c-0.265-0.971-0.398-1.995-0.398-3.074
			c0-1,0.133-1.981,0.398-2.942c0.264-0.961,0.671-1.818,1.22-2.574c0.549-0.756,1.26-1.363,2.133-1.824
			c0.872-0.46,1.908-0.691,3.104-0.691c1.216,0,2.256,0.246,3.119,0.735c0.863,0.491,1.564,1.134,2.104,1.928
			c0.54,0.795,0.927,1.706,1.162,2.735c0.235,1.03,0.333,2.075,0.294,3.134h-11.68C397.812,477.759,397.904,478.45,398.092,479.166z
			 M407.271,473.503c-0.226-0.647-0.545-1.222-0.957-1.722c-0.412-0.501-0.912-0.901-1.5-1.206
			c-0.588-0.305-1.254-0.456-2.001-0.456c-0.765,0-1.441,0.151-2.029,0.456c-0.588,0.305-1.089,0.705-1.5,1.206
			c-0.413,0.5-0.741,1.079-0.986,1.736c-0.245,0.656-0.407,1.329-0.485,2.015h9.827C407.619,474.826,407.497,474.15,407.271,473.503
			z"/>
		<path style="fill:#8C9799;" d="M422.025,463.175v8.709h0.06c0.195-0.549,0.475-1.029,0.839-1.441
			c0.362-0.412,0.779-0.76,1.25-1.044s0.98-0.495,1.53-0.634c0.549-0.136,1.098-0.205,1.647-0.205c1.156,0,2.162,0.216,3.016,0.647
			c0.854,0.432,1.564,1.015,2.133,1.75c0.568,0.735,0.989,1.589,1.264,2.561c0.274,0.971,0.413,1.995,0.413,3.074
			s-0.139,2.104-0.413,3.074c-0.274,0.971-0.695,1.824-1.264,2.559c-0.568,0.736-1.279,1.315-2.133,1.736
			c-0.853,0.422-1.859,0.632-3.016,0.632c-1.235,0-2.339-0.284-3.31-0.853c-0.972-0.568-1.673-1.383-2.104-2.442h-0.06v2.884h-1.706
			v-21.008H422.025z M432.044,474.253c-0.188-0.774-0.48-1.467-0.883-2.074c-0.402-0.608-0.916-1.104-1.544-1.486
			c-0.628-0.382-1.384-0.573-2.266-0.573c-0.982,0-1.81,0.191-2.486,0.573c-0.677,0.383-1.226,0.879-1.648,1.486
			c-0.421,0.607-0.726,1.3-0.912,2.074c-0.186,0.774-0.279,1.555-0.279,2.339c0,0.784,0.094,1.565,0.279,2.339
			c0.186,0.774,0.491,1.467,0.912,2.074c0.423,0.608,0.972,1.103,1.648,1.485c0.677,0.383,1.505,0.573,2.486,0.573
			c0.882,0,1.638-0.19,2.266-0.573c0.628-0.382,1.142-0.877,1.544-1.485c0.402-0.607,0.695-1.3,0.883-2.074
			c0.186-0.774,0.279-1.555,0.279-2.339C432.323,475.808,432.229,475.027,432.044,474.253z"/>
		<path style="fill:#8C9799;" d="M438.766,469.001v3.56h0.06c0.47-1.235,1.2-2.186,2.191-2.854c0.99-0.666,2.171-0.971,3.544-0.912
			v1.853c-0.843-0.039-1.606,0.073-2.294,0.339c-0.688,0.265-1.279,0.643-1.779,1.132c-0.5,0.491-0.888,1.074-1.162,1.751
			c-0.277,0.677-0.413,1.417-0.413,2.222v8.091h-1.853v-15.182H438.766z"/>
		<path style="fill:#8C9799;" d="M446.708,471.354c0.315-0.647,0.74-1.176,1.281-1.589c0.538-0.412,1.171-0.716,1.896-0.912
			c0.726-0.196,1.53-0.294,2.413-0.294c0.666,0,1.335,0.065,2.001,0.191c0.666,0.128,1.264,0.367,1.794,0.721
			c0.53,0.353,0.962,0.848,1.296,1.485c0.332,0.638,0.5,1.467,0.5,2.486v8.062c0,0.746,0.362,1.118,1.088,1.118
			c0.215,0,0.413-0.039,0.587-0.118v1.56c-0.215,0.04-0.406,0.069-0.572,0.088c-0.166,0.021-0.379,0.03-0.632,0.03
			c-0.471,0-0.85-0.065-1.135-0.191c-0.283-0.127-0.504-0.309-0.661-0.544c-0.156-0.235-0.26-0.516-0.309-0.839
			c-0.05-0.323-0.073-0.681-0.073-1.073h-0.06c-0.334,0.49-0.672,0.927-1.015,1.309c-0.343,0.382-0.726,0.701-1.148,0.956
			c-0.421,0.255-0.902,0.45-1.44,0.589c-0.541,0.137-1.184,0.205-1.929,0.205c-0.706,0-1.368-0.084-1.985-0.25
			c-0.617-0.166-1.158-0.431-1.617-0.794c-0.462-0.362-0.824-0.824-1.09-1.383c-0.264-0.559-0.396-1.221-0.396-1.986
			c0-1.059,0.234-1.888,0.705-2.485c0.473-0.598,1.094-1.055,1.868-1.368c0.775-0.315,1.647-0.534,2.62-0.662
			c0.971-0.128,1.956-0.25,2.956-0.368c0.392-0.038,0.734-0.089,1.03-0.147c0.294-0.059,0.538-0.162,0.734-0.309
			c0.195-0.147,0.349-0.349,0.457-0.603c0.107-0.255,0.162-0.589,0.162-1.001c0-0.627-0.105-1.143-0.311-1.545
			c-0.204-0.401-0.489-0.721-0.852-0.955c-0.364-0.235-0.785-0.397-1.267-0.485c-0.48-0.089-0.996-0.133-1.545-0.133
			c-1.177,0-2.137,0.279-2.882,0.838c-0.747,0.56-1.139,1.457-1.177,2.692h-1.853C446.208,472.768,446.395,472.002,446.708,471.354z
			 M455.977,475.886c-0.117,0.216-0.343,0.373-0.677,0.471c-0.334,0.098-0.628,0.166-0.883,0.206
			c-0.783,0.137-1.595,0.261-2.427,0.368c-0.834,0.107-1.594,0.269-2.281,0.484c-0.686,0.217-1.249,0.525-1.69,0.928
			c-0.442,0.401-0.661,0.976-0.661,1.721c0,0.471,0.091,0.887,0.278,1.25c0.186,0.364,0.437,0.677,0.749,0.941
			c0.315,0.266,0.677,0.467,1.09,0.603c0.411,0.138,0.832,0.205,1.265,0.205c0.706,0,1.383-0.107,2.03-0.323
			c0.646-0.215,1.211-0.528,1.691-0.94c0.482-0.413,0.862-0.913,1.148-1.502c0.285-0.587,0.428-1.254,0.428-2v-2.412H455.977z"/>
		<path style="fill:#8C9799;" d="M463.419,469.001v2.618h0.06c0.354-0.922,0.982-1.662,1.884-2.221
			c0.9-0.559,1.892-0.839,2.971-0.839c1.061,0,1.945,0.138,2.663,0.412c0.715,0.274,1.289,0.662,1.722,1.162
			c0.43,0.5,0.734,1.113,0.911,1.839c0.176,0.726,0.266,1.54,0.266,2.442v9.768h-1.854v-9.475c0-0.646-0.06-1.25-0.177-1.809
			c-0.119-0.559-0.323-1.045-0.619-1.457c-0.294-0.412-0.689-0.735-1.19-0.971c-0.5-0.234-1.123-0.353-1.868-0.353
			c-0.747,0-1.409,0.133-1.985,0.397c-0.579,0.264-1.071,0.628-1.473,1.088c-0.402,0.462-0.716,1.011-0.941,1.648
			c-0.226,0.637-0.349,1.329-0.368,2.073v8.857h-1.853v-15.182H463.419z"/>
		<path style="fill:#8C9799;" d="M489.046,484.183v-2.884h-0.06c-0.196,0.49-0.485,0.941-0.866,1.354
			c-0.384,0.411-0.819,0.761-1.311,1.045c-0.489,0.284-1.015,0.504-1.572,0.662c-0.56,0.156-1.113,0.234-1.662,0.234
			c-1.158,0-2.163-0.21-3.016-0.632c-0.854-0.422-1.565-1-2.133-1.736c-0.57-0.735-0.992-1.589-1.267-2.559
			c-0.274-0.971-0.411-1.995-0.411-3.074s0.137-2.103,0.411-3.074c0.274-0.972,0.696-1.825,1.267-2.561
			c0.568-0.735,1.279-1.318,2.133-1.75c0.853-0.432,1.857-0.647,3.016-0.647c0.568,0,1.121,0.069,1.662,0.205
			c0.538,0.139,1.045,0.35,1.515,0.634c0.471,0.284,0.888,0.632,1.25,1.044c0.363,0.412,0.643,0.893,0.838,1.441h0.059v-8.709h1.855
			v21.008H489.046z M478.881,478.931c0.185,0.774,0.481,1.467,0.884,2.074c0.4,0.608,0.915,1.103,1.543,1.485
			c0.628,0.383,1.383,0.573,2.267,0.573c0.978,0,1.809-0.19,2.485-0.573c0.677-0.382,1.226-0.877,1.647-1.485
			c0.422-0.607,0.726-1.3,0.913-2.074c0.186-0.774,0.278-1.555,0.278-2.339c0-0.784-0.093-1.564-0.278-2.339
			c-0.188-0.774-0.491-1.467-0.913-2.074c-0.422-0.608-0.971-1.104-1.647-1.486c-0.677-0.382-1.507-0.573-2.485-0.573
			c-0.884,0-1.639,0.191-2.267,0.573c-0.628,0.383-1.143,0.879-1.543,1.486c-0.402,0.607-0.698,1.3-0.884,2.074
			c-0.188,0.774-0.28,1.555-0.28,2.339C478.601,477.376,478.693,478.156,478.881,478.931z"/>
		<path style="fill:#8C9799;" d="M496.165,463.175v2.973h-1.852v-2.973H496.165z M496.165,469.001v15.182h-1.852v-15.182H496.165z"
			/>
		<path style="fill:#8C9799;" d="M501.549,469.001v2.618h0.061c0.353-0.922,0.98-1.662,1.883-2.221
			c0.9-0.559,1.893-0.839,2.972-0.839c1.059,0,1.945,0.138,2.662,0.412c0.715,0.274,1.29,0.662,1.722,1.162
			c0.43,0.5,0.734,1.113,0.911,1.839c0.177,0.726,0.266,1.54,0.266,2.442v9.768h-1.854v-9.475c0-0.646-0.06-1.25-0.177-1.809
			c-0.119-0.559-0.323-1.045-0.619-1.457c-0.294-0.412-0.69-0.735-1.19-0.971c-0.5-0.234-1.124-0.353-1.869-0.353
			c-0.747,0-1.408,0.133-1.985,0.397c-0.579,0.264-1.07,0.628-1.473,1.088c-0.402,0.462-0.715,1.011-0.94,1.648
			c-0.227,0.637-0.35,1.329-0.369,2.073v8.857h-1.854v-15.182H501.549z"/>
		<path style="fill:#8C9799;" d="M527.984,485.978c-0.247,0.901-0.634,1.666-1.162,2.294c-0.529,0.628-1.222,1.108-2.075,1.442
			c-0.853,0.333-1.898,0.5-3.133,0.5c-0.766,0-1.511-0.088-2.236-0.265c-0.726-0.177-1.377-0.451-1.956-0.824
			c-0.579-0.372-1.06-0.849-1.443-1.427c-0.381-0.579-0.602-1.271-0.661-2.074h1.854c0.098,0.568,0.289,1.044,0.574,1.428
			c0.283,0.382,0.628,0.69,1.03,0.927c0.402,0.234,0.848,0.406,1.339,0.514c0.489,0.108,0.989,0.161,1.5,0.161
			c1.727,0,2.972-0.489,3.735-1.47c0.767-0.981,1.149-2.393,1.149-4.236v-2.06h-0.06c-0.432,0.941-1.065,1.697-1.898,2.266
			c-0.834,0.569-1.809,0.853-2.927,0.853c-1.217,0-2.256-0.201-3.12-0.603c-0.861-0.401-1.572-0.956-2.132-1.662
			c-0.558-0.706-0.967-1.534-1.222-2.486c-0.254-0.951-0.381-1.966-0.381-3.045c0-1.039,0.15-2.025,0.455-2.956
			c0.305-0.932,0.745-1.746,1.324-2.442c0.578-0.696,1.294-1.245,2.147-1.648c0.854-0.402,1.83-0.603,2.928-0.603
			c0.568,0,1.103,0.079,1.603,0.235c0.501,0.157,0.956,0.378,1.369,0.662c0.413,0.285,0.778,0.612,1.103,0.985
			c0.323,0.373,0.574,0.765,0.751,1.177h0.06v-2.618h1.852v13.946C528.351,484.065,528.229,485.075,527.984,485.978z
			 M523.732,481.932c0.608-0.343,1.117-0.795,1.53-1.354c0.41-0.559,0.722-1.201,0.926-1.927c0.206-0.727,0.311-1.471,0.311-2.236
			c0-0.745-0.089-1.49-0.266-2.235c-0.177-0.746-0.462-1.422-0.854-2.03s-0.896-1.099-1.516-1.471
			c-0.617-0.373-1.368-0.56-2.25-0.56c-0.883,0-1.639,0.182-2.267,0.544c-0.627,0.363-1.147,0.839-1.558,1.428
			c-0.413,0.588-0.713,1.26-0.898,2.016c-0.187,0.754-0.278,1.524-0.278,2.309c0,0.766,0.098,1.51,0.294,2.236
			c0.195,0.726,0.5,1.368,0.91,1.927c0.413,0.559,0.933,1.011,1.56,1.354c0.628,0.344,1.373,0.515,2.236,0.515
			C522.419,482.446,523.124,482.275,523.732,481.932z"/>
	</g>
	<g>
		
			<radialGradient id="SVGID_1_" cx="201.346" cy="-91.6467" r="230.5239" gradientTransform="matrix(0.9985 -0.0546 0.0546 0.9985 195.666 268.3721)" gradientUnits="userSpaceOnUse">
			<stop  offset="0" style="stop-color:#BDF7FF"/>
			<stop  offset="0.1093" style="stop-color:#B2F1FF"/>
			<stop  offset="0.3027" style="stop-color:#94E1FF"/>
			<stop  offset="0.5574" style="stop-color:#63C7FF"/>
			<stop  offset="0.8604" style="stop-color:#21A3FF"/>
			<stop  offset="1" style="stop-color:#0091FF"/>
		</radialGradient>
		<path style="fill:url(#SVGID_1_);" d="M282.564,240.04c-25.351,22.124-1.62,20.277,20.776,20.69
			c14.849,0.273,34.225-0.995,41.725,13.361c11.75,22.486-0.492,47.681-20.589,79.335c-10.721,16.888,1.338,31.701,27.845,21.737
			c23.573-8.861,44.324-19.133,74.38-39.583c23.196-13.563,48.169,13.914,63.528,35.524c14.186,19.959,32.091,2.178,27.475-36.423
			c-2.009-16.806-6.154-30.267-19.042-57.64c20.565-24.292,36.368-54.621,42.916-74.622c10.441-31.903,3.419-37.291-16.72-26.369
			c-34.295,18.601-66.535,14.4-75.39,1.849c-9.607-13.617-19.551-25.896-35.22-38.91c-31.439-26.11-45.366-23.268-43.464,3.467
			C376.303,220.002,333.257,195.8,282.564,240.04z"/>
		
			<linearGradient id="SVGID_00000024711347936070492660000010451688948388048535_" gradientUnits="userSpaceOnUse" x1="118.4182" y1="-124.805" x2="212.7475" y2="33.368" gradientTransform="matrix(0.9985 -0.0546 0.0546 0.9985 195.666 268.3721)">
			<stop  offset="0" style="stop-color:#E063FF"/>
			<stop  offset="1" style="stop-color:#0091FF"/>
		</linearGradient>
		<path style="fill:url(#SVGID_00000024711347936070492660000010451688948388048535_);" d="M457.607,190.928l-0.002,0.001
			c-10.386-17.727-22.536-34.645-43.357-51.938c-31.439-26.11-45.366-23.268-43.464,3.467c5.518,77.544-37.528,53.342-88.221,97.582
			c-25.351,22.124-1.62,20.277,20.776,20.69c14.849,0.273,34.225-0.995,41.725,13.361c2.862,5.477,4.298,11.115,4.546,16.968
			C354.714,214.452,504.521,273.198,457.607,190.928z"/>
		
			<linearGradient id="SVGID_00000142150812975383936300000005493083485051606951_" gradientUnits="userSpaceOnUse" x1="321.8773" y1="150.1031" x2="260.0504" y2="44.8029" gradientTransform="matrix(0.9985 -0.0546 0.0546 0.9985 195.666 268.3721)">
			<stop  offset="0" style="stop-color:#E063FF"/>
			<stop  offset="1" style="stop-color:#0091FF"/>
		</linearGradient>
		<path style="fill:url(#SVGID_00000142150812975383936300000005493083485051606951_);" d="M426.701,335.581
			c23.196-13.563,48.169,13.914,63.528,35.524c14.186,19.959,32.091,2.178,27.475-36.423c-2.009-16.806-6.154-30.267-19.042-57.64
			C475.979,302.541,457.761,316.131,426.701,335.581L426.701,335.581z"/>
		
			<linearGradient id="SVGID_00000172423105023225646740000007361446764865663360_" gradientUnits="userSpaceOnUse" x1="290.8" y1="89.4103" x2="261.379" y2="48.003" gradientTransform="matrix(0.9985 -0.0546 0.0546 0.9985 195.666 268.3721)">
			<stop  offset="0" style="stop-color:#FFFFFF"/>
			<stop  offset="1" style="stop-color:#C96699"/>
		</linearGradient>
		<path style="opacity:0.7;fill:url(#SVGID_00000172423105023225646740000007361446764865663360_);" d="M478.921,356.61
			c12.477-9.73,25.107-20.757,37.056-32.812c-2.553-12.583-7.287-25.459-17.314-46.756c-22.683,25.498-40.901,39.088-71.961,58.537
			v0.001C444.836,324.978,464.057,339.458,478.921,356.61z"/>
		
			<radialGradient id="SVGID_00000034070255337261801570000000177090429718863536_" cx="220.5997" cy="-25.9053" r="127.2474" gradientTransform="matrix(0.9985 -0.0546 0.0546 0.9985 195.666 268.3721)" gradientUnits="userSpaceOnUse">
			<stop  offset="0" style="stop-color:#9EFFBA"/>
			<stop  offset="0.4673" style="stop-color:#53CCDB"/>
			<stop  offset="1" style="stop-color:#0195FF"/>
		</radialGradient>
		<path style="fill:url(#SVGID_00000034070255337261801570000000177090429718863536_);" d="M413.176,199.253
			c28.924,2.5,29.491-29.515,16.871-45.573c-4.678-4.884-9.877-9.771-15.798-14.688c-31.439-26.11-45.366-23.268-43.464,3.467
			c3.24,45.536-10.269,55.985-32.236,65.813C370.299,197.971,389.006,197.163,413.176,199.253z"/>
	</g>
</g>
</svg>
